<mxfile host="app.diagrams.net" modified="2022-04-17T05:59:43.257Z" agent="5.0 (Macintosh; Intel Mac OS X 10_14_2) AppleWebKit/537.36 (KHTML, like Gecko) Chrome/100.0.4896.127 Safari/537.36" etag="omeJc0cGcCByKk93T3JM" version="17.4.5" type="github">
  <diagram id="IjaUzveeu0GLmQ0iIxhT" name="第 1 页">
    <mxGraphModel dx="946" dy="590" grid="1" gridSize="10" guides="1" tooltips="1" connect="1" arrows="1" fold="1" page="1" pageScale="1" pageWidth="827" pageHeight="1169" math="0" shadow="0">
      <root>
        <mxCell id="0" />
        <mxCell id="1" parent="0" />
        <mxCell id="4qGKlSSovspCRA8E7G3C-1" value="" style="rounded=0;whiteSpace=wrap;html=1;fillColor=#f5f5f5;strokeColor=#666666;fontColor=#333333;" vertex="1" parent="1">
          <mxGeometry x="140" y="140" width="540" height="260" as="geometry" />
        </mxCell>
        <mxCell id="4qGKlSSovspCRA8E7G3C-2" value="JS报错" style="rounded=1;whiteSpace=wrap;html=1;fillColor=#dae8fc;strokeColor=#6c8ebf;" vertex="1" parent="1">
          <mxGeometry x="180" y="160" width="120" height="100" as="geometry" />
        </mxCell>
        <mxCell id="4qGKlSSovspCRA8E7G3C-3" value="网络请求报错" style="rounded=1;whiteSpace=wrap;html=1;fillColor=#dae8fc;strokeColor=#6c8ebf;" vertex="1" parent="1">
          <mxGeometry x="350" y="160" width="120" height="100" as="geometry" />
        </mxCell>
        <mxCell id="4qGKlSSovspCRA8E7G3C-4" value="框架捕获异常" style="rounded=1;whiteSpace=wrap;html=1;fillColor=#dae8fc;strokeColor=#6c8ebf;" vertex="1" parent="1">
          <mxGeometry x="520" y="160" width="120" height="100" as="geometry" />
        </mxCell>
        <mxCell id="4qGKlSSovspCRA8E7G3C-5" value="通过TraceKit捕获，抹平各浏览器的错误对象的差异" style="text;html=1;strokeColor=none;fillColor=none;align=left;verticalAlign=middle;whiteSpace=wrap;rounded=0;fontSize=14;" vertex="1" parent="1">
          <mxGeometry x="190" y="290" width="100" height="80" as="geometry" />
        </mxCell>
        <mxCell id="4qGKlSSovspCRA8E7G3C-6" value="劫持请求的返回对象，code!=0判断为异常，也支持自定义上报" style="text;html=1;strokeColor=none;fillColor=none;align=left;verticalAlign=middle;whiteSpace=wrap;rounded=0;fontSize=14;" vertex="1" parent="1">
          <mxGeometry x="360" y="290" width="100" height="80" as="geometry" />
        </mxCell>
        <mxCell id="4qGKlSSovspCRA8E7G3C-7" value="利用vue框架提供的errorHandle方法，监听异常" style="text;html=1;strokeColor=none;fillColor=none;align=left;verticalAlign=middle;whiteSpace=wrap;rounded=0;fontSize=14;" vertex="1" parent="1">
          <mxGeometry x="530" y="290" width="100" height="80" as="geometry" />
        </mxCell>
      </root>
    </mxGraphModel>
  </diagram>
</mxfile>
